<svg xmlns="http://www.w3.org/2000/svg" width="64" height="64" viewBox="0 0 64 64" fill="none">
  <path d="M64 32C64 14.3269 49.6731 0 32 0C14.3269 0 0 14.3269 0 32C0 49.6731 14.3269 64 32 64C49.6731 64 64 49.6731 64 32Z" fill="#7289DA"/>
  <path d="M29.104 31.424C28.192 31.424 27.472 32.224 27.472 33.2C27.472 34.176 28.208 34.976 29.104 34.976C30.016 34.976 30.736 34.176 30.736 33.2C30.752 32.224 30.016 31.424 29.104 31.424ZM34.944 31.424C34.032 31.424 33.312 32.224 33.312 33.2C33.312 34.176 34.048 34.976 34.944 34.976C35.856 34.976 36.576 34.176 36.576 33.2C36.576 32.224 35.856 31.424 34.944 31.424Z" fill="white"/>
  <path d="M42.72 18H21.28C19.472 18 18 19.472 18 21.296V42.928C18 44.752 19.472 46.224 21.28 46.224H39.424L38.576 43.264L40.624 45.168L42.56 46.96L46 50V21.296C46 19.472 44.528 18 42.72 18ZM36.544 38.896C36.544 38.896 35.968 38.208 35.488 37.6C37.584 37.008 38.384 35.696 38.384 35.696C37.728 36.128 37.104 36.432 36.544 36.64C35.744 36.976 34.976 37.2 34.224 37.328C32.688 37.616 31.28 37.536 30.08 37.312C29.168 37.136 28.384 36.88 27.728 36.624C27.36 36.48 26.96 36.304 26.56 36.08C26.512 36.048 26.464 36.032 26.416 36C26.384 35.984 26.368 35.968 26.352 35.952C26.064 35.792 25.904 35.68 25.904 35.68C25.904 35.68 26.672 36.96 28.704 37.568C28.224 38.176 27.632 38.896 27.632 38.896C24.096 38.784 22.752 36.464 22.752 36.464C22.752 31.312 25.056 27.136 25.056 27.136C27.36 25.408 29.552 25.456 29.552 25.456L29.712 25.648C26.832 26.48 25.504 27.744 25.504 27.744C25.504 27.744 25.856 27.552 26.448 27.28C28.16 26.528 29.52 26.32 30.08 26.272C30.176 26.256 30.256 26.24 30.352 26.24C31.328 26.112 32.432 26.08 33.584 26.208C35.104 26.384 36.736 26.832 38.4 27.744C38.4 27.744 37.136 26.544 34.416 25.712L34.64 25.456C34.64 25.456 36.832 25.408 39.136 27.136C39.136 27.136 41.44 31.312 41.44 36.464C41.44 36.464 40.08 38.784 36.544 38.896Z" fill="white"/>
</svg>