<svg width="25" height="25" viewBox="0 0 25 25" fill="none" xmlns="http://www.w3.org/2000/svg">
    <g clip-path="url(#clip0_141_373)">
    <path d="M12.5 25C19.4036 25 25 19.4036 25 12.5C25 5.59644 19.4036 0 12.5 0C5.59644 0 0 5.59644 0 12.5C0 19.4036 5.59644 25 12.5 25Z" fill="#F0F0F0"/>
    <path d="M2.58403 4.88971C1.60215 6.1672 0.861768 7.63961 0.430664 9.23917H6.9335L2.58403 4.88971Z" fill="#0052B4"/>
    <path d="M24.5691 9.23918C24.138 7.63967 23.3976 6.16726 22.4158 4.88977L18.0664 9.23918H24.5691Z" fill="#0052B4"/>
    <path d="M0.430664 15.7609C0.861816 17.3604 1.6022 18.8328 2.58403 20.1103L6.93335 15.7609H0.430664Z" fill="#0052B4"/>
    <path d="M20.1102 2.58402C18.8327 1.60214 17.3603 0.861755 15.7607 0.430603V6.93339L20.1102 2.58402Z" fill="#0052B4"/>
    <path d="M4.88965 22.416C6.16714 23.3979 7.63955 24.1382 9.23906 24.5694V18.0667L4.88965 22.416Z" fill="#0052B4"/>
    <path d="M9.23901 0.430603C7.6395 0.861755 6.16709 1.60214 4.88965 2.58397L9.23901 6.93334V0.430603Z" fill="#0052B4"/>
    <path d="M15.7607 24.5694C17.3603 24.1382 18.8327 23.3979 20.1101 22.416L15.7607 18.0667V24.5694Z" fill="#0052B4"/>
    <path d="M18.0664 15.7609L22.4158 20.1103C23.3976 18.8329 24.138 17.3604 24.5691 15.7609H18.0664Z" fill="#0052B4"/>
    <path d="M24.8942 10.8696H14.1305L14.1305 0.105811C13.5967 0.0363281 13.0526 0 12.5 0C11.9473 0 11.4033 0.0363281 10.8696 0.105811V10.8695L0.105811 10.8695C0.0363281 11.4033 0 11.9474 0 12.5C0 13.0527 0.0363281 13.5967 0.105811 14.1304H10.8695L10.8695 24.8942C11.4033 24.9637 11.9473 25 12.5 25C13.0526 25 13.5967 24.9637 14.1304 24.8942V14.1305L24.8942 14.1305C24.9637 13.5967 25 13.0527 25 12.5C25 11.9474 24.9637 11.4033 24.8942 10.8696Z" fill="#D80027"/>
    <path d="M15.7607 15.7609L21.3387 21.3388C21.5952 21.0824 21.8399 20.8143 22.0734 20.5364L17.298 15.7609H15.7607V15.7609Z" fill="#D80027"/>
    <path d="M9.23911 15.7609H9.23901L3.66113 21.3388C3.91758 21.5953 4.18569 21.8401 4.46362 22.0736L9.23911 17.298V15.7609Z" fill="#D80027"/>
    <path d="M9.23945 9.23921V9.23911L3.66152 3.66113C3.40498 3.91758 3.16025 4.18569 2.92676 4.46362L7.70229 9.23916H9.23945V9.23921Z" fill="#D80027"/>
    <path d="M15.7607 9.2392L21.3387 3.66117C21.0823 3.40463 20.8142 3.1599 20.5362 2.92645L15.7607 7.70199V9.2392Z" fill="#D80027"/>
    </g>
    <defs>
    <clipPath id="clip0_141_373">
    <rect width="25" height="25" fill="white"/>
    </clipPath>
    </defs>
  </svg>