<svg width="32" height="32" viewBox="0 0 32 32" fill="none" xmlns="http://www.w3.org/2000/svg">
<path d="M4.66675 6.27557C4.66675 5.38701 5.38707 4.66669 6.27563 4.66669H25.7245C26.6131 4.66669 27.3334 5.38701 27.3334 6.27557V25.7244C27.3334 26.613 26.6131 27.3333 25.7245 27.3333H6.27564C5.38707 27.3333 4.66675 26.613 4.66675 25.7244V6.27557Z" fill="#0A66C2"/>
<path d="M9.75441 11.7059C10.8404 11.7059 11.7207 10.8255 11.7207 9.73952C11.7207 8.65355 10.8404 7.77319 9.75441 7.77319C8.66844 7.77319 7.78809 8.65355 7.78809 9.73952C7.78809 10.8255 8.66844 11.7059 9.75441 11.7059Z" fill="white"/>
<path d="M13.5216 13.159H16.7804V14.6519C16.7804 14.6519 17.6647 12.8833 20.0709 12.8833C22.2173 12.8833 23.9953 13.9406 23.9953 17.1635V23.9597H20.6182V17.987C20.6182 16.0858 19.6032 15.8767 18.8297 15.8767C17.2246 15.8767 16.9498 17.2613 16.9498 18.235V23.9597H13.5216V13.159Z" fill="white"/>
<path d="M8.04032 13.159H11.4685V23.9597H8.04032V13.159Z" fill="white"/>
</svg>
