<svg width="77" height="48" viewBox="0 0 77 48" fill="none" xmlns="http://www.w3.org/2000/svg">
<path fill-rule="evenodd" clip-rule="evenodd" d="M38.5 43.1262C44.2724 38.7432 48 31.8069 48 24C48 16.1931 44.2724 9.25675 38.5 4.87376C42.5282 1.81519 47.5521 0 53 0C66.2548 0 77 10.7452 77 24C77 37.2548 66.2548 48 53 48C47.5521 48 42.5282 46.1848 38.5 43.1262ZM38.5 43.1262C34.4718 46.1848 29.4479 48 24 48C10.7452 48 0 37.2548 0 24C0 10.7452 10.7452 0 24 0C29.4479 0 34.4718 1.81519 38.5 4.87376C32.7276 9.25675 29 16.1931 29 24C29 31.8069 32.7276 38.7432 38.5 43.1262Z" fill="#D9D9D9"/>
</svg>
