<svg width="27" height="27" viewBox="0 0 27 27" fill="none" xmlns="http://www.w3.org/2000/svg">
<path d="M26.6081 8.07514V15.8789C26.6081 20.3235 23.1748 23.9541 18.9716 23.9541H17.9186C17.6178 23.9541 17.3523 24.1599 17.2638 24.4687L16.7683 26.1436C16.5913 26.7518 15.8126 26.8454 15.5118 26.2933L13.7155 22.9996L12.8483 21.3996C12.5829 20.913 12.9191 20.3048 13.45 20.3048H18.9893C21.2988 20.3048 23.1748 18.3211 23.1748 15.8789V8.07514C23.1748 5.63295 21.2988 3.64925 18.9893 3.64925H16.9276C16.6798 3.64925 16.4498 3.5089 16.3259 3.28433L15.1313 1.09478C14.8658 0.608208 15.2021 0 15.733 0H18.9893C23.1925 0 26.6258 3.63054 26.6258 8.07514H26.6081ZM10.6538 20.6697C10.53 20.4452 10.2999 20.3048 10.0521 20.3048H7.62759C6.45071 20.3048 5.39771 19.7902 4.63672 18.9667C4.27393 18.5644 3.97307 18.0965 3.76955 17.5819C3.56603 17.0579 3.451 16.4871 3.451 15.8883V8.0845C3.451 5.6423 5.32692 3.65861 7.63644 3.65861H13.5385C14.0694 3.65861 14.4057 3.0504 14.1402 2.56383L12.9457 0.374282C12.8218 0.149713 12.5917 0.00935762 12.3439 0.00935762H7.63644C3.4333 0.00935762 0 3.63989 0 8.0845V15.8883C0 17.1515 0.283158 18.3492 0.769837 19.4159C0.937963 19.7902 1.14148 20.1364 1.3627 20.4732C2.15024 21.6709 3.23863 22.6441 4.51284 23.2523C5.4685 23.7108 6.5215 23.9634 7.63644 23.9634H11.2556C11.7865 23.9634 12.1227 23.3552 11.8573 22.8686L10.6627 20.6791L10.6538 20.6697Z" fill="white"/>
</svg>
