<svg xmlns="http://www.w3.org/2000/svg" width="25" height="25" viewBox="0 0 25 25" fill="none">
  <g clip-path="url(#clip0_141_355)">
    <path d="M12.5 25C19.4036 25 25 19.4036 25 12.5C25 5.59644 19.4036 0 12.5 0C5.59644 0 0 5.59644 0 12.5C0 19.4036 5.59644 25 12.5 25Z" fill="#F0F0F0"/>
    <path d="M24.2225 16.8478C24.725 15.4937 25 14.029 25 12.5C25 10.971 24.725 9.50637 24.2225 8.15222H0.77749C0.275049 9.50637 0 10.971 0 12.5C0 14.029 0.275049 15.4937 0.77749 16.8478L12.5 17.9348L24.2225 16.8478Z" fill="#0052B4"/>
    <path d="M12.4999 25C17.8744 25 22.4562 21.6078 24.2224 16.8478H0.777344C2.54351 21.6078 7.12529 25 12.4999 25Z" fill="#D80027"/>
  </g>
  <defs>
    <clipPath id="clip0_141_355">
      <rect width="25" height="25" fill="white"/>
    </clipPath>
  </defs>
</svg>