<svg width="64" height="65" viewBox="0 0 64 65" fill="none" xmlns="http://www.w3.org/2000/svg">
<path d="M32 64.082C49.6731 64.082 64 49.7551 64 32.082C64 14.4089 49.6731 0.0820312 32 0.0820312C14.3269 0.0820312 0 14.4089 0 32.082C0 49.7551 14.3269 64.082 32 64.082Z" fill="#34AADF"/>
<path d="M13.7178 31.3816C13.7178 31.3816 29.569 24.6379 35.0664 22.2634C37.1739 21.3136 44.3206 18.2741 44.3206 18.2741C44.3206 18.2741 47.6192 16.9444 47.3442 20.1738C47.2525 21.5035 46.5196 26.1576 45.7866 31.1916C44.6871 38.3153 43.4959 46.1037 43.4959 46.1037C43.4959 46.1037 43.3127 48.2883 41.7551 48.6682C40.1975 49.0481 37.6319 47.3386 37.1739 46.9585C36.8073 46.6737 30.3019 42.3994 27.9197 40.3098C27.2783 39.74 26.5453 38.6003 28.0112 37.2705C31.3098 34.1361 35.2497 30.2419 37.6319 27.7724C38.7315 26.6325 39.8309 23.9731 35.2497 27.2024C28.7443 31.8565 22.3306 36.2257 22.3306 36.2257C22.3306 36.2257 20.8645 37.1754 18.1158 36.3206C15.367 35.4659 12.1601 34.326 12.1601 34.326C12.1601 34.326 9.96119 32.9013 13.7178 31.3816Z" fill="white"/>
</svg>
