<svg xmlns="http://www.w3.org/2000/svg" width="64" height="64" viewBox="0 0 64 64" fill="none">
  <path d="M0 32C0 49.6731 14.3269 64 32 64C49.6731 64 64 49.6731 64 32C64 14.3269 49.6731 0 32 0C14.3269 0 0 14.3269 0 32Z" fill="#1DA1F2"/>
  <path d="M48 22C46.8 22.6 45.6 22.8 44.2 23C45.6 22.2 46.6 21 47 19.4C45.8 20.2 44.4 20.6 42.8 21C41.6 19.8 39.8 19 38 19C33.8 19 30.6 23 31.6 27C26.2 26.8 21.4 24.2 18 20.2C16.2 23.2 17.2 27 20 29C19 29 18 28.6 17 28.2C17 31.2 19.2 34 22.2 34.8C21.2 35 20.2 35.2 19.2 35C20 37.6 22.4 39.6 25.4 39.6C23 41.4 19.4 42.4 16 42C19 43.8 22.4 45 26 45C38.2 45 45 34.8 44.6 25.4C46 24.6 47.2 23.4 48 22Z" fill="white"/>
</svg>