<svg width="50" height="50" viewBox="0 0 50 50" fill="none" xmlns="http://www.w3.org/2000/svg">
<g clip-path="url(#clip0_1003_173848)">
<path d="M25 50C38.8075 50 50 38.8075 50 25C50 11.1925 38.8075 0 25 0C11.1925 0 0 11.1925 0 25C0 38.8075 11.1925 50 25 50Z" fill="#E84142"/>
<path fill-rule="evenodd" clip-rule="evenodd" d="M17.9156 34.9487H13.0638C12.0443 34.9487 11.5407 34.9487 11.2336 34.7523C10.902 34.5372 10.6993 34.181 10.6748 33.7879C10.6563 33.4257 10.9081 32.9834 11.4118 32.099L23.3914 10.9832C23.9012 10.0864 24.1591 9.63816 24.4846 9.4723C24.8347 9.29423 25.2523 9.29423 25.6024 9.4723C25.9279 9.63816 26.1858 10.0864 26.6956 10.9832L29.1583 15.2822L29.1709 15.3042C29.7215 16.2661 30.0006 16.7539 30.1226 17.2659C30.2576 17.8248 30.2576 18.4144 30.1226 18.9732C29.9997 19.4892 29.7233 19.9804 29.1645 20.9569L22.8718 32.0806L22.8556 32.1091C22.3013 33.0789 22.0205 33.5705 21.6313 33.9414C21.2075 34.3468 20.6977 34.6414 20.1388 34.8075C19.6291 34.9487 19.0579 34.9487 17.9156 34.9487ZM30.168 34.9487H37.1201C38.1457 34.9487 38.6617 34.9487 38.9689 34.7463C39.3005 34.5312 39.5092 34.1687 39.5278 33.7759C39.5455 33.4254 39.2991 33.0003 38.8165 32.1673C38.7998 32.1389 38.7832 32.1101 38.7662 32.0807L35.2838 26.1234L35.2442 26.0564C34.7549 25.2289 34.5079 24.811 34.1906 24.6495C33.8408 24.4714 33.429 24.4714 33.0791 24.6495C32.7597 24.8153 32.5018 25.2514 31.9921 26.1296L28.5221 32.0869L28.5102 32.1074C28.0022 32.9842 27.7483 33.4224 27.7667 33.7819C27.7912 34.175 27.9939 34.5372 28.3256 34.7523C28.6265 34.9487 29.1423 34.9487 30.168 34.9487Z" fill="white"/>
</g>
<defs>
<clipPath id="clip0_1003_173848">
<rect width="50" height="50" fill="white"/>
</clipPath>
</defs>
</svg>
