<svg width="25" height="24" viewBox="0 0 25 24" fill="none" xmlns="http://www.w3.org/2000/svg">
<path fill-rule="evenodd" clip-rule="evenodd" d="M4.37868 3.87874C4.94129 3.31613 5.70435 3.00006 6.5 3.00006H14.5C15.2956 3.00006 16.0587 3.31613 16.6213 3.87874C17.1839 4.44135 17.5 5.20441 17.5 6.00006V7.00006H18.5C20.1569 7.00006 21.5 8.34321 21.5 10.0001V18.0001C21.5 19.6569 20.1569 21.0001 18.5 21.0001H10.5C8.84315 21.0001 7.5 19.6569 7.5 18.0001V17.0001H6.5C5.70435 17.0001 4.94129 16.684 4.37868 16.1214C3.81607 15.5588 3.5 14.7957 3.5 14.0001V6.00006C3.5 5.20441 3.81607 4.44135 4.37868 3.87874ZM9.5 18.0001C9.5 18.5523 9.94772 19.0001 10.5 19.0001H18.5C19.0523 19.0001 19.5 18.5523 19.5 18.0001V10.0001C19.5 9.44778 19.0523 9.00006 18.5 9.00006H10.5C9.94772 9.00006 9.5 9.44778 9.5 10.0001V18.0001ZM15.5 7.00006H10.5C8.84315 7.00006 7.5 8.34321 7.5 10.0001V15.0001H6.5C6.23478 15.0001 5.98043 14.8947 5.79289 14.7072C5.60536 14.5196 5.5 14.2653 5.5 14.0001V6.00006C5.5 5.73484 5.60536 5.48049 5.79289 5.29295C5.98043 5.10542 6.23478 5.00006 6.5 5.00006H14.5C14.7652 5.00006 15.0196 5.10542 15.2071 5.29295C15.3946 5.48049 15.5 5.73484 15.5 6.00006V7.00006Z" fill="#D9D9D9"/>
</svg>
