<svg width="24" height="24" viewBox="0 0 24 24" fill="none" xmlns="http://www.w3.org/2000/svg">
<path d="M12.0273 0H11.9727C5.36034 0 0 5.36035 0 11.9727V12.0273C0 18.6397 5.36034 24 11.9727 24H12.0273C18.6396 24 24 18.6397 24 12.0273V11.9727C24 5.36035 18.6396 0 12.0273 0Z" fill="#5865F2"/>
<path d="M18.0061 6.49037C16.9013 5.98335 15.7174 5.61002 14.4788 5.39645C14.4561 5.39224 14.4334 5.40233 14.4225 5.42335C14.2703 5.6941 14.1013 6.04809 13.9836 6.32557C12.6517 6.12629 11.3265 6.12629 10.0216 6.32557C9.903 6.04137 9.7281 5.6941 9.57507 5.42335C9.5633 5.40317 9.5406 5.39308 9.51874 5.39645C8.28103 5.61002 7.0963 5.98335 5.99144 6.49037C5.98219 6.49458 5.97378 6.50131 5.96789 6.51055C3.72117 9.86717 3.10566 13.1414 3.40753 16.3752C3.40921 16.3912 3.41762 16.4064 3.43023 16.4156C4.91262 17.5045 6.34879 18.1654 7.75803 18.6035C7.78074 18.6102 7.80428 18.6018 7.81857 18.5833C8.15154 18.1284 8.4492 17.6483 8.70398 17.1429C8.71911 17.1135 8.70397 17.0782 8.6737 17.0664C8.20199 16.8873 7.75382 16.6695 7.32162 16.4223C7.28715 16.4022 7.28464 16.3534 7.31575 16.3298C7.40656 16.2617 7.49737 16.1911 7.58398 16.1196C7.59995 16.1062 7.62181 16.1037 7.64031 16.1121C10.4764 17.407 13.5472 17.407 16.3497 16.1121C16.3682 16.1028 16.3901 16.1062 16.406 16.1188C16.4926 16.1903 16.5834 16.2617 16.6751 16.3298C16.7062 16.3534 16.7045 16.4022 16.6701 16.4223C16.2387 16.6746 15.7897 16.8882 15.3172 17.0664C15.286 17.0782 15.2726 17.1135 15.2877 17.1438C15.5484 17.6474 15.8452 18.1276 16.1723 18.5833C16.1857 18.6026 16.2101 18.611 16.2328 18.6043C17.6488 18.1662 19.0849 17.5053 20.5673 16.4165C20.5799 16.4072 20.5884 16.3921 20.59 16.3769C20.9516 12.6386 19.9846 9.39126 18.028 6.51224C18.023 6.50299 18.0154 6.49542 18.0053 6.49122L18.0061 6.49037ZM9.12606 14.406C8.27177 14.406 7.56885 13.6224 7.56885 12.6596C7.56885 11.6968 8.25915 10.9132 9.12606 10.9132C9.99296 10.9132 10.6976 11.7044 10.6833 12.6596C10.6833 13.6224 9.99296 14.406 9.12606 14.406ZM14.8849 14.406C14.0307 14.406 13.3277 13.6224 13.3277 12.6596C13.3277 11.6968 14.018 10.9132 14.8849 10.9132C15.7519 10.9132 16.4565 11.7044 16.4422 12.6596C16.4422 13.6224 15.7594 14.406 14.8849 14.406Z" fill="white"/>
</svg>
