<svg width="24" height="24" viewBox="0 0 24 24" fill="none" xmlns="http://www.w3.org/2000/svg">
<path fill-rule="evenodd" clip-rule="evenodd" d="M16.7013 2.90722C17.2827 2.32633 18.0708 2 18.8927 2C19.7149 2 20.5034 2.32662 21.0848 2.908C21.6662 3.48938 21.9928 4.27791 21.9928 5.10011C21.9928 5.92207 21.6664 6.71039 21.0853 7.29172C21.0851 7.29189 21.0854 7.29156 21.0853 7.29172L19.8211 8.5604C19.7861 8.61212 19.7456 8.66128 19.6998 8.70711C19.6548 8.75205 19.6067 8.79183 19.556 8.82643L12.701 15.7059C12.5134 15.8943 12.2585 16.0001 11.9927 16.0001H8.99268C8.44039 16.0001 7.99268 15.5524 7.99268 15.0001V12.0001C7.99268 11.7343 8.09853 11.4794 8.28683 11.2917L15.1658 4.4373C15.2005 4.38642 15.2404 4.33804 15.2856 4.29289C15.3316 4.24687 15.381 4.20627 15.433 4.1711L16.7006 2.908C16.7008 2.90774 16.7011 2.90748 16.7013 2.90722ZM16.004 6.42551L9.99268 12.4154V14.0001H11.5774L17.5673 7.98881L16.004 6.42551ZM18.979 6.57208L17.4207 5.01382L18.1148 4.32221C18.3211 4.1159 18.6009 4 18.8927 4C19.1844 4 19.4643 4.1159 19.6706 4.32221C19.8769 4.52852 19.9928 4.80834 19.9928 5.10011C19.9928 5.39187 19.8769 5.67169 19.6706 5.878L18.979 6.57208ZM9.98213 6.92508C10.0622 7.47153 9.68413 7.97943 9.13768 8.0595C7.6385 8.27918 6.27788 9.05775 5.32889 10.2389C4.37991 11.4201 3.91279 12.9165 4.02128 14.4278C4.12977 15.9391 4.80585 17.3535 5.91382 18.387C7.02156 19.4203 8.47905 19.9965 9.99388 20.0001C11.4362 19.9996 12.8301 19.4798 13.9205 18.5357C15.0113 17.5914 15.7253 16.2857 15.932 14.8578C16.0111 14.3112 16.5183 13.9323 17.0649 14.0114C17.6115 14.0905 17.9905 14.5977 17.9114 15.1443C17.6358 17.048 16.6838 18.7887 15.2296 20.0477C13.7754 21.3068 11.9163 21.9999 9.99281 22.0001L9.99052 22.0001C7.97045 21.9957 6.02677 21.2274 4.5496 19.8495C3.07242 18.4716 2.17106 16.586 2.02641 14.5711C1.88177 12.5562 2.50454 10.5611 3.76975 8.98631C5.03496 7.41152 6.84897 6.37351 8.84771 6.08063C9.39416 6.00056 9.90205 6.37863 9.98213 6.92508Z" fill="black"/>
</svg>
