<svg width="106" height="106" viewBox="0 0 106 106" fill="none" xmlns="http://www.w3.org/2000/svg">
<circle cx="53" cy="53" r="48" stroke="black" stroke-opacity="0.3" stroke-width="10"/>
<path d="M52 101C64.7304 101 76.9394 95.9429 85.9411 86.9411C94.9429 77.9394 100 65.7304 100 53C100 40.2696 94.9429 28.0606 85.9411 19.0589C76.9394 10.0571 64.7304 5 52 5" stroke="white" stroke-width="10" stroke-linecap="round"/>
<path d="M44.9224 46.9062C44.7898 45.6657 44.2311 44.6998 43.2463 44.0085C42.2709 43.3172 41.002 42.9716 39.4395 42.9716C38.341 42.9716 37.3987 43.1373 36.6128 43.4688C35.8268 43.8002 35.2254 44.25 34.8088 44.8182C34.3921 45.3864 34.179 46.035 34.1696 46.7642C34.1696 47.3703 34.3069 47.8958 34.5815 48.3409C34.8656 48.786 35.2491 49.1648 35.7321 49.4773C36.215 49.7803 36.7501 50.036 37.3372 50.2443C37.9243 50.4527 38.5162 50.6278 39.1128 50.7699L41.84 51.4517C42.9385 51.7074 43.9944 52.053 45.0076 52.4886C46.0304 52.9242 46.9442 53.4735 47.7491 54.1364C48.5635 54.7992 49.2075 55.5994 49.6809 56.5369C50.1544 57.4744 50.3912 58.5729 50.3912 59.8324C50.3912 61.5369 49.9556 63.0379 49.0843 64.3352C48.2131 65.6231 46.9537 66.6316 45.3059 67.3608C43.6677 68.0805 41.6838 68.4403 39.3542 68.4403C37.091 68.4403 35.126 68.09 33.4593 67.3892C31.8021 66.6884 30.5048 65.6657 29.5673 64.321C28.6393 62.9763 28.1374 61.3381 28.0616 59.4062H33.2463C33.322 60.4195 33.6345 61.2623 34.1838 61.9347C34.733 62.607 35.448 63.1089 36.3287 63.4403C37.2188 63.7718 38.2131 63.9375 39.3116 63.9375C40.4575 63.9375 41.4612 63.767 42.323 63.4261C43.1942 63.0758 43.876 62.5928 44.3684 61.9773C44.8609 61.3523 45.1118 60.6231 45.1213 59.7898C45.1118 59.0322 44.8893 58.4072 44.4537 57.9148C44.0181 57.4129 43.4073 56.9962 42.6213 56.6648C41.8448 56.3239 40.9357 56.0208 39.894 55.7557L36.5843 54.9034C34.1885 54.2879 32.2946 53.3551 30.9025 52.1051C29.52 50.8456 28.8287 49.1742 28.8287 47.0909C28.8287 45.3769 29.2927 43.8759 30.2207 42.5881C31.1582 41.3002 32.4319 40.3011 34.0417 39.5909C35.6516 38.8712 37.4745 38.5114 39.5105 38.5114C41.5749 38.5114 43.3836 38.8712 44.9366 39.5909C46.4991 40.3011 47.7254 41.2907 48.6156 42.5597C49.5057 43.8191 49.965 45.268 49.9934 46.9062H44.9224ZM70.459 46.9062C70.3264 45.6657 69.7677 44.6998 68.7828 44.0085C67.8075 43.3172 66.5385 42.9716 64.976 42.9716C63.8775 42.9716 62.9353 43.1373 62.1493 43.4688C61.3633 43.8002 60.762 44.25 60.3453 44.8182C59.9287 45.3864 59.7156 46.035 59.7061 46.7642C59.7061 47.3703 59.8434 47.8958 60.1181 48.3409C60.4022 48.786 60.7857 49.1648 61.2686 49.4773C61.7516 49.7803 62.2866 50.036 62.8737 50.2443C63.4609 50.4527 64.0527 50.6278 64.6493 50.7699L67.3766 51.4517C68.4751 51.7074 69.5309 52.053 70.5442 52.4886C71.5669 52.9242 72.4808 53.4735 73.2857 54.1364C74.1001 54.7992 74.744 55.5994 75.2175 56.5369C75.691 57.4744 75.9277 58.5729 75.9277 59.8324C75.9277 61.5369 75.4921 63.0379 74.6209 64.3352C73.7497 65.6231 72.4902 66.6316 70.8425 67.3608C69.2042 68.0805 67.2203 68.4403 64.8908 68.4403C62.6275 68.4403 60.6626 68.09 58.9959 67.3892C57.3387 66.6884 56.0414 65.6657 55.1039 64.321C54.1758 62.9763 53.6739 61.3381 53.5982 59.4062H58.7828C58.8586 60.4195 59.1711 61.2623 59.7203 61.9347C60.2696 62.607 60.9845 63.1089 61.8652 63.4403C62.7554 63.7718 63.7497 63.9375 64.8482 63.9375C65.994 63.9375 66.9978 63.767 67.8595 63.4261C68.7308 63.0758 69.4126 62.5928 69.905 61.9773C70.3974 61.3523 70.6484 60.6231 70.6578 59.7898C70.6484 59.0322 70.4258 58.4072 69.9902 57.9148C69.5546 57.4129 68.9438 56.9962 68.1578 56.6648C67.3813 56.3239 66.4722 56.0208 65.4306 55.7557L62.1209 54.9034C59.7251 54.2879 57.8311 53.3551 56.4391 52.1051C55.0565 50.8456 54.3652 49.1742 54.3652 47.0909C54.3652 45.3769 54.8292 43.8759 55.7573 42.5881C56.6948 41.3002 57.9684 40.3011 59.5783 39.5909C61.1881 38.8712 63.0111 38.5114 65.047 38.5114C67.1114 38.5114 68.9202 38.8712 70.4732 39.5909C72.0357 40.3011 73.262 41.2907 74.1522 42.5597C75.0423 43.8191 75.5016 45.268 75.53 46.9062H70.459Z" fill="#1B1B1B"/>
</svg>
