<svg width="24" height="24" viewBox="0 0 24 24" fill="none" xmlns="http://www.w3.org/2000/svg">
<path d="M12.0273 0H11.9727C5.36035 0 0 5.36035 0 11.9727V12.0273C0 18.6397 5.36035 24 11.9727 24H12.0273C18.6397 24 24 18.6397 24 12.0273V11.9727C24 5.36035 18.6397 0 12.0273 0Z" fill="url(#paint0_linear_1938_18686)"/>
<path d="M15.7173 4.88281H8.29101C6.23937 4.88281 4.57031 6.55187 4.57031 8.60352V15.3975C4.57031 17.4491 6.23937 19.1182 8.29101 19.1182H15.7173C17.7689 19.1182 19.438 17.4491 19.438 15.3975V8.60352C19.438 6.55187 17.7689 4.88281 15.7173 4.88281ZM5.88286 8.60352C5.88286 7.27583 6.96333 6.19536 8.29101 6.19536H15.7173C17.045 6.19536 18.1254 7.27583 18.1254 8.60352V15.3975C18.1254 16.7252 17.045 17.8056 15.7173 17.8056H8.29101C6.96333 17.8056 5.88286 16.7252 5.88286 15.3975V8.60352Z" fill="white"/>
<path d="M12.0078 15.4608C13.9156 15.4608 15.4686 13.9086 15.4686 11.9999C15.4686 10.0912 13.9165 8.53906 12.0078 8.53906C10.0991 8.53906 8.54688 10.0912 8.54688 11.9999C8.54688 13.9086 10.0991 15.4608 12.0078 15.4608ZM12.0078 9.85245C13.1925 9.85245 14.1561 10.816 14.1561 12.0008C14.1561 13.1855 13.1925 14.1491 12.0078 14.1491C10.823 14.1491 9.85942 13.1855 9.85942 12.0008C9.85942 10.816 10.823 9.85245 12.0078 9.85245Z" fill="white"/>
<path d="M15.7838 9.09837C16.2974 9.09837 16.716 8.68048 16.716 8.16589C16.716 7.65129 16.2982 7.2334 15.7838 7.2334C15.2693 7.2334 14.8516 7.65129 14.8516 8.16589C14.8516 8.68048 15.2693 9.09837 15.7838 9.09837Z" fill="white"/>
<defs>
<linearGradient id="paint0_linear_1938_18686" x1="3.50629" y1="20.4937" x2="20.4937" y2="3.50713" gradientUnits="userSpaceOnUse">
<stop stop-color="#FAAD4F"/>
<stop offset="0.35" stop-color="#DD2A7B"/>
<stop offset="0.62" stop-color="#9537B0"/>
<stop offset="1" stop-color="#515BD4"/>
</linearGradient>
</defs>
</svg>
