<svg width="102" height="72" viewBox="0 0 102 72" fill="none" xmlns="http://www.w3.org/2000/svg">
<path d="M0 0.0220062C12.276 16.3716 24.1135 13.379 44.9826 13.379C46.5829 13.379 47.5693 15.1614 46.7144 16.5257C32.619 41.4352 28.7827 31.9511 49.5861 53.0318V72L26.2618 48.5868C24.1135 46.4303 23.7408 43.0636 25.3849 40.489L32.9039 28.7164C33.715 27.4401 32.8162 25.7677 31.3037 25.7677C10.6099 27.154 6.42295 17.2298 0 0V0.0220062Z" fill="#FF2600"/>
<path d="M102 0.0220062C89.7241 16.3716 77.8865 13.379 57.0174 13.379C55.4172 13.379 54.4307 15.1614 55.2856 16.5257C69.3811 41.4352 73.2173 31.9511 52.4139 53.0318V72L75.7383 48.5868C77.8865 46.4303 78.2592 43.0636 76.6151 40.489L69.0961 28.7164C68.285 27.4401 69.1838 25.7677 70.6963 25.7677C91.3901 27.154 95.5771 17.2298 102 0V0.0220062Z" fill="#FF2600"/>
</svg>
