<svg width="50" height="50" viewBox="0 0 50 50" fill="none" xmlns="http://www.w3.org/2000/svg">
<circle cx="25" cy="25" r="25" fill="url(#paint0_linear_1003_173845)"/>
<path d="M28.0017 21.9339C28.0114 22.1488 27.943 22.3637 27.904 22.5689C27.7281 23.3797 27.6793 24.2198 27.4644 25.0208C27.7867 24.7375 28.1482 24.4445 28.5975 24.4054C29.1544 24.3273 29.7307 24.6887 29.9163 25.2064C30.0335 25.6363 29.9847 26.0856 29.8968 26.5154C30.1215 26.535 30.3364 26.5252 30.5611 26.4959C30.5024 25.9782 30.6392 25.4409 30.9811 25.0404C31.4109 24.5129 32.1631 24.2979 32.8176 24.4542C33.3842 24.6203 33.7066 25.3627 33.3549 25.8512C32.9739 26.3982 32.3292 26.6717 31.7333 26.9257C31.8896 27.1016 32.1143 27.2286 32.3585 27.209C33.0423 27.1699 33.648 26.7987 34.195 26.4275C34.1657 25.7926 34.3318 25.0794 34.8788 24.6887C35.4356 24.2882 36.2269 24.3663 36.7739 24.7375C37.067 24.5226 37.5457 24.5422 37.702 24.9134C37.741 25.5581 37.5652 26.2126 37.7508 26.8476C37.7997 27.0136 37.9755 27.209 38.1611 27.1016C38.5811 26.8769 38.8449 26.4764 39.1087 26.0954C39.265 25.6851 39.2161 25.226 39.3431 24.8059C39.431 24.6105 39.6948 24.5129 39.8804 24.6496C40.0855 24.7473 40.1051 24.9818 40.1441 25.1771C40.4177 24.8157 40.7693 24.4249 41.2675 24.4347C41.6974 24.3761 42.0979 24.6301 42.2639 25.0111C42.5277 24.6496 42.9478 24.3761 43.4166 24.4445C43.9442 24.4249 44.4033 24.8743 44.4033 25.3823C44.4521 25.9489 43.9344 26.3591 43.9149 26.9062C43.9051 27.1797 44.2372 27.209 44.4326 27.1406C44.9894 26.9453 45.2727 26.408 45.6439 25.9977C45.849 26.1149 46.103 26.3494 45.9565 26.6034C45.6439 27.0527 45.2727 27.5021 44.794 27.7951C44.4326 28.0198 43.9442 28.0882 43.5436 27.9124C43.1529 27.7561 42.9478 27.3165 42.9673 26.916C42.9966 26.4666 43.2897 26.1052 43.4069 25.6753C43.4655 25.519 43.3873 25.3041 43.2115 25.2748C42.9087 25.2455 42.6254 25.4409 42.4495 25.6753C42.1858 26.0368 42.0588 26.4666 41.9318 26.8866C41.8439 27.1992 41.8732 27.5509 41.7364 27.8537C41.5411 28.2054 40.9549 27.9221 40.9549 27.5802C40.9159 27.1797 41.0331 26.8085 41.1796 26.4471L41.2773 26.1931C41.3555 25.9977 41.4238 25.7926 41.4727 25.5874C41.502 25.4213 41.3457 25.265 41.1796 25.2748C40.7986 25.3041 40.5153 25.6069 40.3493 25.9293C40.0855 26.4471 39.9195 27.0136 39.8706 27.59C39.8511 27.8049 39.7045 28.0882 39.431 28.01C39.0891 27.9514 38.9524 27.59 39.011 27.2872C38.9817 27.3165 38.9524 27.336 38.923 27.3653L38.8351 27.4435C38.5323 27.7268 38.2099 28.0198 37.7703 28.01C37.2135 27.9417 36.9107 27.3751 36.8423 26.8866C36.5883 27.3458 36.2953 27.8635 35.7385 27.9905C35.1426 28.0882 34.5662 27.6974 34.3025 27.1895C33.6968 27.6681 32.9446 28.0296 32.1534 28.01C31.5965 27.9905 31.1374 27.6193 30.8248 27.209C30.4048 27.336 29.9456 27.3946 29.5451 27.1699C29.1641 27.9612 28.1189 28.3031 27.3179 27.9514C26.9662 27.8049 26.7513 27.4825 26.595 27.1504C26.1065 27.5802 25.5204 27.9221 24.8659 28.0198C24.5045 28.0784 24.1919 27.7756 24.1235 27.4435C23.9574 26.8085 24.3286 26.2028 24.397 25.5874C24.4361 25.4116 24.2603 25.2455 24.0844 25.2943C23.6546 25.3237 23.3713 25.7046 23.1857 26.0465C22.9708 26.4764 22.795 26.9355 22.7168 27.4044C22.6777 27.5998 22.6582 27.8147 22.5117 27.971C22.2284 28.1468 21.8474 27.9026 21.8181 27.5998C21.7985 27.2872 21.8669 26.9746 21.9255 26.662C21.6422 27.0136 21.144 27.082 20.7631 26.8378C20.5091 27.6486 19.6006 28.1468 18.7605 27.9905C18.1939 27.8831 17.6859 27.4337 17.5785 26.8671C17.4515 26.2517 17.5394 25.5679 17.9106 25.0404C18.526 24.2296 19.9425 24.2589 20.5677 25.0501C20.8119 25.3627 20.8412 25.7632 20.8217 26.1442C20.9975 26.2224 21.2027 26.2712 21.359 26.1345C21.7888 25.8121 22.1014 25.3334 22.2479 24.8255C22.3261 24.6203 22.6093 24.5324 22.7852 24.6692C22.9708 24.7766 23.0099 24.9915 23.0099 25.1771C23.4006 24.6985 24.0356 24.3761 24.6705 24.4542C25.0124 24.4933 25.2469 24.7961 25.286 25.1185C25.3641 25.5679 25.2371 25.9879 25.1004 26.408L25.0515 26.574C25.0027 26.7108 24.9636 26.8573 24.9343 26.9941C24.905 27.2188 25.1883 27.1602 25.3055 27.082C25.7256 26.8866 26.1065 26.6131 26.4484 26.2908C26.5364 24.8352 26.8099 23.3992 26.9955 21.9535C27.1029 21.4455 27.9333 21.465 28.0017 21.9339ZM7.34089 21.172C7.81956 22.5005 8.08331 23.8974 8.29822 25.2846C8.43498 25.1283 8.46429 24.9134 8.54244 24.718C8.85504 23.8779 9.1481 23.028 9.49977 22.1977C9.63653 21.8753 9.77329 21.5432 9.9882 21.2501C10.0664 21.1231 10.2227 21.0645 10.3692 21.0938C10.6036 21.2403 10.6525 21.5334 10.6818 21.7776C10.8185 23.2722 10.8967 24.7766 11.0237 26.2712C11.053 26.7206 11.2484 27.1602 11.2288 27.6095C11.1507 28.0394 10.3594 28.0882 10.3106 27.6095C10.1543 26.1345 10.037 24.6398 9.97844 23.155C9.54861 24.2393 9.25555 25.3823 8.81596 26.4666C8.64989 26.7597 8.43498 27.1895 8.03447 27.1406C7.79025 27.1309 7.78048 26.8573 7.74141 26.6815C7.49719 25.6265 7.27251 24.5715 7.07714 23.5067C6.76454 24.6692 6.42263 25.8316 5.83651 26.8964C5.58253 27.3262 5.2797 27.7951 4.75219 27.9319C4.4982 28.0198 4.07815 28.0394 4 27.717C4 27.3848 4.40052 27.3165 4.58612 27.1016C4.92803 26.701 5.14294 26.2126 5.34808 25.7339C5.91466 24.2979 6.29564 22.7936 6.65708 21.299C6.68639 20.9864 7.20413 20.8789 7.34089 21.172ZM18.9461 25.3139C18.3307 25.6558 18.36 26.5838 18.8484 27.0234C19.1219 27.2481 19.5517 27.1211 19.7569 26.8573C20.0793 26.4568 20.0304 25.8707 19.7569 25.4604C19.5713 25.2064 19.2001 25.1674 18.9461 25.3139ZM28.1384 25.2748C27.5328 25.5288 27.2299 26.3396 27.5914 26.8964C27.777 27.1895 28.197 27.1699 28.4803 27.0527C29.0958 26.7792 29.3204 25.9293 28.9395 25.3823C28.7636 25.1185 28.3924 25.1576 28.1384 25.2748ZM35.6017 25.2943C34.9179 25.5483 34.869 26.5252 35.3477 26.9941C35.4942 27.1309 35.758 27.1797 35.9143 27.0234C36.2855 26.6815 36.5004 26.1931 36.5883 25.7046C36.4711 25.3334 35.9534 25.1869 35.6017 25.2943ZM31.8798 25.2357C31.5868 25.5386 31.5575 25.9782 31.4891 26.3689C31.8603 26.1442 32.2022 25.8707 32.5246 25.5874C32.6418 25.4897 32.7395 25.3237 32.6613 25.1674C32.4562 24.9329 32.0752 25.0501 31.8798 25.2357ZM15.5857 24.4835C16.2304 24.7571 16.6602 25.4311 16.6114 26.1149C15.4587 26.1149 14.306 26.1247 13.1533 26.1052C13.1533 25.646 13.3096 25.1771 13.6417 24.8548C14.1301 24.3566 14.9409 24.2003 15.5857 24.4835Z" fill="#5FC0C1"/>
<path d="M15.5368 28.8795C15.6051 28.8795 15.6637 28.9186 15.6637 28.9674C15.6637 29.0163 15.6051 29.0554 15.5368 29.0554H13.6807C13.6123 29.0554 13.5537 29.0163 13.5537 28.9674C13.5537 28.9186 13.6123 28.8795 13.6807 28.8795H15.5368Z" fill="#E1177C"/>
<path d="M13.2803 29.0553C13.3504 29.0553 13.4073 28.9984 13.4073 28.9283C13.4073 28.8581 13.3504 28.8013 13.2803 28.8013C13.2102 28.8013 13.1533 28.8581 13.1533 28.9283C13.1533 28.9984 13.2102 29.0553 13.2803 29.0553Z" fill="#E1177C"/>
<path d="M14.3938 28.5864C14.464 28.5864 14.5208 28.5295 14.5208 28.4594C14.5208 28.3893 14.464 28.3324 14.3938 28.3324C14.3237 28.3324 14.2668 28.3893 14.2668 28.4594C14.2668 28.5295 14.3237 28.5864 14.3938 28.5864Z" fill="#E1177C"/>
<path d="M16.5723 28.3324C16.6406 28.3324 16.6993 28.391 16.6993 28.4594C16.6993 28.5278 16.6406 28.5864 16.5723 28.5864H14.7553C14.6869 28.5864 14.6283 28.5278 14.6283 28.4594C14.6283 28.391 14.6869 28.3324 14.7553 28.3324H16.5723Z" fill="#E1177C"/>
<path d="M12.0103 28.1175C12.0804 28.1175 12.1373 28.0607 12.1373 27.9905C12.1373 27.9204 12.0804 27.8635 12.0103 27.8635C11.9402 27.8635 11.8833 27.9204 11.8833 27.9905C11.8833 28.0607 11.9402 28.1175 12.0103 28.1175Z" fill="#E1177C"/>
<path d="M13.8175 27.8635C13.8859 27.8635 13.9445 27.9221 13.9445 27.9905C13.9445 28.0589 13.8859 28.1175 13.8175 28.1175H12.3229C12.2545 28.1175 12.1959 28.0589 12.1959 27.9905C12.1959 27.9221 12.2545 27.8635 12.3229 27.8635H13.8175Z" fill="#E1177C"/>
<path d="M17.1682 27.8635C17.2366 27.8635 17.2952 27.9221 17.2952 27.9905C17.2952 28.0589 17.2366 28.1175 17.1682 28.1175H14.1985C14.1301 28.1175 14.0715 28.0589 14.0715 27.9905C14.0715 27.9221 14.1301 27.8635 14.1985 27.8635H17.1682Z" fill="#E1177C"/>
<path d="M16.6114 27.3946C16.6798 27.3946 16.7384 27.4532 16.7384 27.5216C16.7384 27.59 16.6798 27.6486 16.6114 27.6486H12.9677C12.8993 27.6486 12.8407 27.59 12.8407 27.5216C12.8407 27.4532 12.8993 27.3946 12.9677 27.3946H16.6114Z" fill="#E1177C"/>
<path d="M12.5672 27.6486C12.6373 27.6486 12.6942 27.5917 12.6942 27.5216C12.6942 27.4514 12.6373 27.3946 12.5672 27.3946C12.497 27.3946 12.4402 27.4514 12.4402 27.5216C12.4402 27.5917 12.497 27.6486 12.5672 27.6486Z" fill="#E1177C"/>
<path d="M15.8494 26.9355C15.9178 26.9355 15.9764 26.9942 15.9764 27.0625C15.9764 27.1309 15.9178 27.1895 15.8494 27.1895H12.2057C12.1373 27.1895 12.0787 27.1309 12.0787 27.0625C12.0787 26.9942 12.1373 26.9355 12.2057 26.9355H15.8494Z" fill="#E1177C"/>
<path d="M11.7662 27.1895C11.8363 27.1895 11.8931 27.1327 11.8931 27.0625C11.8931 26.9924 11.8363 26.9355 11.7662 26.9355C11.696 26.9355 11.6392 26.9924 11.6392 27.0625C11.6392 27.1327 11.696 27.1895 11.7662 27.1895Z" fill="#E1177C"/>
<path d="M12.5672 26.7206C12.6373 26.7206 12.6942 26.6637 12.6942 26.5936C12.6942 26.5235 12.6373 26.4666 12.5672 26.4666C12.497 26.4666 12.4402 26.5235 12.4402 26.5936C12.4402 26.6637 12.497 26.7206 12.5672 26.7206Z" fill="#E1177C"/>
<path d="M16.9631 26.4666C17.0315 26.4666 17.0901 26.5252 17.0901 26.5936C17.0901 26.662 17.0315 26.7206 16.9631 26.7206H12.997C12.9286 26.7206 12.87 26.662 12.87 26.5936C12.87 26.5252 12.9286 26.4666 12.997 26.4666H16.9631Z" fill="#E1177C"/>
<defs>
<linearGradient id="paint0_linear_1003_173845" x1="25" y1="0" x2="25" y2="50" gradientUnits="userSpaceOnUse">
<stop stop-color="#202751"/>
<stop offset="1" stop-color="#0F1126"/>
</linearGradient>
</defs>
</svg>
