<svg width="50" height="50" viewBox="0 0 50 50" fill="none" xmlns="http://www.w3.org/2000/svg">
<circle cx="25" cy="25" r="25" fill="#D9D9D9"/>
<path d="M33.7441 19.4748C33.1227 19.1068 32.3238 19.1068 31.6136 19.4748L26.6423 22.5104L23.2689 24.4421L18.3864 27.4777C17.765 27.8457 16.9661 27.8457 16.2559 27.4777L12.4386 25.0861C11.8172 24.7181 11.3734 23.9822 11.3734 23.1543V18.5549C11.3734 17.819 11.7285 17.0831 12.4386 16.6231L16.2559 14.3234C16.8773 13.9555 17.6762 13.9555 18.3864 14.3234L22.2037 16.7151C22.8251 17.0831 23.2689 17.819 23.2689 18.6469V21.6825L26.6423 19.6588V16.5312C26.6423 15.7953 26.2872 15.0593 25.577 14.5994L18.4752 10.276C17.8538 9.90801 17.0548 9.90801 16.3446 10.276L9.06527 14.6914C8.35509 15.0593 8 15.7953 8 16.5312V25.178C8 25.9139 8.35509 26.6499 9.06527 27.1098L16.2559 31.4332C16.8773 31.8012 17.6762 31.8012 18.3864 31.4332L23.2689 28.4896L26.6423 26.4659L31.5248 23.5223C32.1462 23.1543 32.9452 23.1543 33.6554 23.5223L37.4726 25.822C38.094 26.1899 38.5379 26.9258 38.5379 27.7537V32.3531C38.5379 33.089 38.1828 33.8249 37.4726 34.2849L33.7441 36.5846C33.1227 36.9525 32.3238 36.9525 31.6136 36.5846L27.7963 34.2849C27.1749 33.9169 26.7311 33.181 26.7311 32.3531V29.4095L23.3577 31.4332V34.4688C23.3577 35.2047 23.7128 35.9407 24.423 36.4006L31.6136 40.724C32.235 41.092 33.0339 41.092 33.7441 40.724L40.9347 36.4006C41.5561 36.0326 42 35.2967 42 34.4688V25.73C42 24.9941 41.6449 24.2582 40.9347 23.7982L33.7441 19.4748Z" fill="#8247E5"/>
</svg>
