<svg width="98" height="18" viewBox="0 0 98 18" fill="none" xmlns="http://www.w3.org/2000/svg">
<g clip-path="url(#clip0_754_3040)">
<path d="M6.1822 5.50494L1.3972 6.19869L1.31245 6.21594C1.18415 6.25 1.06719 6.3175 0.973516 6.41154C0.879839 6.50559 0.812799 6.62281 0.779243 6.75124C0.745687 6.87966 0.746817 7.0147 0.782517 7.14255C0.818217 7.2704 0.887209 7.38648 0.982446 7.47894L4.44895 10.8532L3.63145 15.6194L3.6217 15.7019C3.61384 15.8346 3.6414 15.967 3.70153 16.0856C3.76167 16.2041 3.85223 16.3045 3.96395 16.3766C4.07566 16.4486 4.20451 16.4897 4.33731 16.4955C4.4701 16.5014 4.60207 16.4718 4.7197 16.4099L8.9992 14.1599L13.2689 16.4099L13.3439 16.4444C13.4677 16.4932 13.6023 16.5082 13.7338 16.4878C13.8652 16.4674 13.9889 16.4124 14.0921 16.3284C14.1953 16.2444 14.2744 16.1345 14.3211 16.0099C14.3678 15.8853 14.3805 15.7506 14.3579 15.6194L13.5397 10.8532L17.0077 7.47819L17.0662 7.41444C17.1498 7.31152 17.2046 7.18828 17.225 7.05729C17.2454 6.92629 17.2308 6.79223 17.1825 6.66874C17.1343 6.54525 17.0541 6.43677 16.9503 6.35433C16.8465 6.27189 16.7227 6.21844 16.5914 6.19944L11.8064 5.50494L9.66745 1.16994C9.60555 1.04434 9.50974 0.938578 9.39084 0.86462C9.27194 0.790662 9.13472 0.751465 8.9947 0.751465C8.85468 0.751465 8.71745 0.790662 8.59855 0.86462C8.47966 0.938578 8.38384 1.04434 8.32195 1.16994L6.1822 5.50494Z" fill="#888888"/>
<g clip-path="url(#clip1_754_3040)">
<path d="M6.1822 5.50494L1.3972 6.19869L1.31245 6.21594C1.18415 6.25 1.06719 6.3175 0.973516 6.41154C0.879839 6.50559 0.812799 6.62281 0.779243 6.75124C0.745687 6.87966 0.746817 7.0147 0.782517 7.14255C0.818217 7.2704 0.887209 7.38648 0.982446 7.47894L4.44895 10.8532L3.63145 15.6194L3.6217 15.7019C3.61384 15.8346 3.6414 15.967 3.70153 16.0856C3.76167 16.2041 3.85223 16.3045 3.96395 16.3766C4.07566 16.4486 4.20451 16.4897 4.33731 16.4955C4.4701 16.5014 4.60207 16.4718 4.7197 16.4099L8.9992 14.1599L13.2689 16.4099L13.3439 16.4444C13.4677 16.4932 13.6023 16.5082 13.7338 16.4878C13.8652 16.4674 13.9889 16.4124 14.0921 16.3284C14.1953 16.2444 14.2744 16.1345 14.3211 16.0099C14.3678 15.8853 14.3805 15.7506 14.3579 15.6194L13.5397 10.8532L17.0077 7.47819L17.0662 7.41444C17.1498 7.31152 17.2046 7.18828 17.225 7.05729C17.2454 6.92629 17.2308 6.79223 17.1825 6.66874C17.1343 6.54525 17.0541 6.43677 16.9503 6.35433C16.8465 6.27189 16.7227 6.21844 16.5914 6.19944L11.8064 5.50494L9.66745 1.16994C9.60555 1.04434 9.50974 0.938578 9.39084 0.86462C9.27194 0.790662 9.13472 0.751465 8.9947 0.751465C8.85468 0.751465 8.71745 0.790662 8.59855 0.86462C8.47966 0.938578 8.38384 1.04434 8.32195 1.16994L6.1822 5.50494Z" fill="#FAB005"/>
</g>
</g>
<g clip-path="url(#clip2_754_3040)">
<path d="M26.1822 5.50494L21.3972 6.19869L21.3124 6.21594C21.1842 6.25 21.0672 6.3175 20.9735 6.41154C20.8798 6.50559 20.8128 6.62281 20.7792 6.75124C20.7457 6.87966 20.7468 7.0147 20.7825 7.14255C20.8182 7.2704 20.8872 7.38648 20.9824 7.47894L24.4489 10.8532L23.6314 15.6194L23.6217 15.7019C23.6138 15.8346 23.6414 15.967 23.7015 16.0856C23.7617 16.2041 23.8522 16.3045 23.9639 16.3766C24.0757 16.4486 24.2045 16.4897 24.3373 16.4955C24.4701 16.5014 24.6021 16.4718 24.7197 16.4099L28.9992 14.1599L33.2689 16.4099L33.3439 16.4444C33.4677 16.4932 33.6023 16.5082 33.7338 16.4878C33.8652 16.4674 33.9889 16.4124 34.0921 16.3284C34.1953 16.2444 34.2744 16.1345 34.3211 16.0099C34.3678 15.8853 34.3805 15.7506 34.3579 15.6194L33.5397 10.8532L37.0077 7.47819L37.0662 7.41444C37.1498 7.31152 37.2046 7.18828 37.225 7.05729C37.2454 6.92629 37.2308 6.79223 37.1825 6.66874C37.1343 6.54525 37.0541 6.43677 36.9503 6.35433C36.8465 6.27189 36.7227 6.21844 36.5914 6.19944L31.8064 5.50494L29.6674 1.16994C29.6056 1.04434 29.5097 0.938578 29.3908 0.86462C29.2719 0.790662 29.1347 0.751465 28.9947 0.751465C28.8547 0.751465 28.7175 0.790662 28.5986 0.86462C28.4797 0.938578 28.3838 1.04434 28.3219 1.16994L26.1822 5.50494Z" fill="#888888"/>
<g clip-path="url(#clip3_754_3040)">
<path d="M26.1822 5.50494L21.3972 6.19869L21.3124 6.21594C21.1842 6.25 21.0672 6.3175 20.9735 6.41154C20.8798 6.50559 20.8128 6.62281 20.7792 6.75124C20.7457 6.87966 20.7468 7.0147 20.7825 7.14255C20.8182 7.2704 20.8872 7.38648 20.9824 7.47894L24.4489 10.8532L23.6314 15.6194L23.6217 15.7019C23.6138 15.8346 23.6414 15.967 23.7015 16.0856C23.7617 16.2041 23.8522 16.3045 23.9639 16.3766C24.0757 16.4486 24.2045 16.4897 24.3373 16.4955C24.4701 16.5014 24.6021 16.4718 24.7197 16.4099L28.9992 14.1599L33.2689 16.4099L33.3439 16.4444C33.4677 16.4932 33.6023 16.5082 33.7338 16.4878C33.8652 16.4674 33.9889 16.4124 34.0921 16.3284C34.1953 16.2444 34.2744 16.1345 34.3211 16.0099C34.3678 15.8853 34.3805 15.7506 34.3579 15.6194L33.5397 10.8532L37.0077 7.47819L37.0662 7.41444C37.1498 7.31152 37.2046 7.18828 37.225 7.05729C37.2454 6.92629 37.2308 6.79223 37.1825 6.66874C37.1343 6.54525 37.0541 6.43677 36.9503 6.35433C36.8465 6.27189 36.7227 6.21844 36.5914 6.19944L31.8064 5.50494L29.6674 1.16994C29.6056 1.04434 29.5097 0.938578 29.3908 0.86462C29.2719 0.790662 29.1347 0.751465 28.9947 0.751465C28.8547 0.751465 28.7175 0.790662 28.5986 0.86462C28.4797 0.938578 28.3838 1.04434 28.3219 1.16994L26.1822 5.50494Z" fill="#FAB005"/>
</g>
</g>
<g clip-path="url(#clip4_754_3040)">
<path d="M46.1822 5.50494L41.3972 6.19869L41.3124 6.21594C41.1842 6.25 41.0672 6.3175 40.9735 6.41154C40.8798 6.50559 40.8128 6.62281 40.7792 6.75124C40.7457 6.87966 40.7468 7.0147 40.7825 7.14255C40.8182 7.2704 40.8872 7.38648 40.9824 7.47894L44.4489 10.8532L43.6314 15.6194L43.6217 15.7019C43.6138 15.8346 43.6414 15.967 43.7015 16.0856C43.7617 16.2041 43.8522 16.3045 43.9639 16.3766C44.0757 16.4486 44.2045 16.4897 44.3373 16.4955C44.4701 16.5014 44.6021 16.4718 44.7197 16.4099L48.9992 14.1599L53.2689 16.4099L53.3439 16.4444C53.4677 16.4932 53.6023 16.5082 53.7338 16.4878C53.8652 16.4674 53.9889 16.4124 54.0921 16.3284C54.1953 16.2444 54.2744 16.1345 54.3211 16.0099C54.3678 15.8853 54.3805 15.7506 54.3579 15.6194L53.5397 10.8532L57.0077 7.47819L57.0662 7.41444C57.1498 7.31152 57.2046 7.18828 57.225 7.05729C57.2454 6.92629 57.2308 6.79223 57.1825 6.66874C57.1343 6.54525 57.0541 6.43677 56.9503 6.35433C56.8465 6.27189 56.7227 6.21844 56.5914 6.19944L51.8064 5.50494L49.6674 1.16994C49.6056 1.04434 49.5097 0.938578 49.3908 0.86462C49.2719 0.790662 49.1347 0.751465 48.9947 0.751465C48.8547 0.751465 48.7175 0.790662 48.5986 0.86462C48.4797 0.938578 48.3838 1.04434 48.3219 1.16994L46.1822 5.50494Z" fill="#888888"/>
<g clip-path="url(#clip5_754_3040)">
<path d="M46.1822 5.50494L41.3972 6.19869L41.3124 6.21594C41.1842 6.25 41.0672 6.3175 40.9735 6.41154C40.8798 6.50559 40.8128 6.62281 40.7792 6.75124C40.7457 6.87966 40.7468 7.0147 40.7825 7.14255C40.8182 7.2704 40.8872 7.38648 40.9824 7.47894L44.4489 10.8532L43.6314 15.6194L43.6217 15.7019C43.6138 15.8346 43.6414 15.967 43.7015 16.0856C43.7617 16.2041 43.8522 16.3045 43.9639 16.3766C44.0757 16.4486 44.2045 16.4897 44.3373 16.4955C44.4701 16.5014 44.6021 16.4718 44.7197 16.4099L48.9992 14.1599L53.2689 16.4099L53.3439 16.4444C53.4677 16.4932 53.6023 16.5082 53.7338 16.4878C53.8652 16.4674 53.9889 16.4124 54.0921 16.3284C54.1953 16.2444 54.2744 16.1345 54.3211 16.0099C54.3678 15.8853 54.3805 15.7506 54.3579 15.6194L53.5397 10.8532L57.0077 7.47819L57.0662 7.41444C57.1498 7.31152 57.2046 7.18828 57.225 7.05729C57.2454 6.92629 57.2308 6.79223 57.1825 6.66874C57.1343 6.54525 57.0541 6.43677 56.9503 6.35433C56.8465 6.27189 56.7227 6.21844 56.5914 6.19944L51.8064 5.50494L49.6674 1.16994C49.6056 1.04434 49.5097 0.938578 49.3908 0.86462C49.2719 0.790662 49.1347 0.751465 48.9947 0.751465C48.8547 0.751465 48.7175 0.790662 48.5986 0.86462C48.4797 0.938578 48.3838 1.04434 48.3219 1.16994L46.1822 5.50494Z" fill="#FAB005"/>
</g>
</g>
<g clip-path="url(#clip6_754_3040)">
<path d="M66.1822 5.50494L61.3972 6.19869L61.3124 6.21594C61.1842 6.25 61.0672 6.3175 60.9735 6.41154C60.8798 6.50559 60.8128 6.62281 60.7792 6.75124C60.7457 6.87966 60.7468 7.0147 60.7825 7.14255C60.8182 7.2704 60.8872 7.38648 60.9824 7.47894L64.4489 10.8532L63.6314 15.6194L63.6217 15.7019C63.6138 15.8346 63.6414 15.967 63.7015 16.0856C63.7617 16.2041 63.8522 16.3045 63.9639 16.3766C64.0757 16.4486 64.2045 16.4897 64.3373 16.4955C64.4701 16.5014 64.6021 16.4718 64.7197 16.4099L68.9992 14.1599L73.2689 16.4099L73.3439 16.4444C73.4677 16.4932 73.6023 16.5082 73.7338 16.4878C73.8652 16.4674 73.9889 16.4124 74.0921 16.3284C74.1953 16.2444 74.2744 16.1345 74.3211 16.0099C74.3678 15.8853 74.3805 15.7506 74.3579 15.6194L73.5397 10.8532L77.0077 7.47819L77.0662 7.41444C77.1498 7.31152 77.2046 7.18828 77.225 7.05729C77.2454 6.92629 77.2308 6.79223 77.1825 6.66874C77.1343 6.54525 77.0541 6.43677 76.9503 6.35433C76.8465 6.27189 76.7227 6.21844 76.5914 6.19944L71.8064 5.50494L69.6674 1.16994C69.6056 1.04434 69.5097 0.938578 69.3908 0.86462C69.2719 0.790662 69.1347 0.751465 68.9947 0.751465C68.8547 0.751465 68.7175 0.790662 68.5986 0.86462C68.4797 0.938578 68.3838 1.04434 68.3219 1.16994L66.1822 5.50494Z" fill="#888888"/>
<g clip-path="url(#clip7_754_3040)">
<path d="M66.1822 5.50494L61.3972 6.19869L61.3124 6.21594C61.1842 6.25 61.0672 6.3175 60.9735 6.41154C60.8798 6.50559 60.8128 6.62281 60.7792 6.75124C60.7457 6.87966 60.7468 7.0147 60.7825 7.14255C60.8182 7.2704 60.8872 7.38648 60.9824 7.47894L64.4489 10.8532L63.6314 15.6194L63.6217 15.7019C63.6138 15.8346 63.6414 15.967 63.7015 16.0856C63.7617 16.2041 63.8522 16.3045 63.9639 16.3766C64.0757 16.4486 64.2045 16.4897 64.3373 16.4955C64.4701 16.5014 64.6021 16.4718 64.7197 16.4099L68.9992 14.1599L73.2689 16.4099L73.3439 16.4444C73.4677 16.4932 73.6023 16.5082 73.7338 16.4878C73.8652 16.4674 73.9889 16.4124 74.0921 16.3284C74.1953 16.2444 74.2744 16.1345 74.3211 16.0099C74.3678 15.8853 74.3805 15.7506 74.3579 15.6194L73.5397 10.8532L77.0077 7.47819L77.0662 7.41444C77.1498 7.31152 77.2046 7.18828 77.225 7.05729C77.2454 6.92629 77.2308 6.79223 77.1825 6.66874C77.1343 6.54525 77.0541 6.43677 76.9503 6.35433C76.8465 6.27189 76.7227 6.21844 76.5914 6.19944L71.8064 5.50494L69.6674 1.16994C69.6056 1.04434 69.5097 0.938578 69.3908 0.86462C69.2719 0.790662 69.1347 0.751465 68.9947 0.751465C68.8547 0.751465 68.7175 0.790662 68.5986 0.86462C68.4797 0.938578 68.3838 1.04434 68.3219 1.16994L66.1822 5.50494Z" fill="#FAB005"/>
</g>
</g>
<path d="M86.1822 5.50494L81.3972 6.19869L81.3124 6.21594C81.1842 6.25 81.0672 6.3175 80.9735 6.41154C80.8798 6.50559 80.8128 6.62281 80.7792 6.75124C80.7457 6.87966 80.7468 7.0147 80.7825 7.14255C80.8182 7.2704 80.8872 7.38648 80.9824 7.47894L84.4489 10.8532L83.6314 15.6194L83.6217 15.7019C83.6138 15.8346 83.6414 15.967 83.7015 16.0856C83.7617 16.2041 83.8522 16.3045 83.9639 16.3766C84.0757 16.4486 84.2045 16.4897 84.3373 16.4955C84.4701 16.5014 84.6021 16.4718 84.7197 16.4099L88.9992 14.1599L93.2689 16.4099L93.3439 16.4444C93.4677 16.4932 93.6023 16.5082 93.7338 16.4878C93.8652 16.4674 93.9889 16.4124 94.0921 16.3284C94.1953 16.2444 94.2744 16.1345 94.3211 16.0099C94.3678 15.8853 94.3805 15.7506 94.3579 15.6194L93.5397 10.8532L97.0077 7.47819L97.0662 7.41444C97.1498 7.31152 97.2046 7.18828 97.225 7.05729C97.2454 6.92629 97.2308 6.79223 97.1825 6.66874C97.1343 6.54525 97.0541 6.43677 96.9503 6.35433C96.8465 6.27189 96.7227 6.21844 96.5914 6.19944L91.8064 5.50494L89.6674 1.16994C89.6056 1.04434 89.5097 0.938578 89.3908 0.86462C89.2719 0.790662 89.1347 0.751465 88.9947 0.751465C88.8547 0.751465 88.7175 0.790662 88.5986 0.86462C88.4797 0.938578 88.3838 1.04434 88.3219 1.16994L86.1822 5.50494Z" fill="#888888"/>
<defs>
<clipPath id="clip0_754_3040">
<rect width="18" height="18" fill="white"/>
</clipPath>
<clipPath id="clip1_754_3040">
<rect width="18" height="18" fill="white"/>
</clipPath>
<clipPath id="clip2_754_3040">
<rect width="18" height="18" fill="white" transform="translate(20)"/>
</clipPath>
<clipPath id="clip3_754_3040">
<rect width="18" height="18" fill="white" transform="translate(20)"/>
</clipPath>
<clipPath id="clip4_754_3040">
<rect width="18" height="18" fill="white" transform="translate(40)"/>
</clipPath>
<clipPath id="clip5_754_3040">
<rect width="18" height="18" fill="white" transform="translate(40)"/>
</clipPath>
<clipPath id="clip6_754_3040">
<rect width="18" height="18" fill="white" transform="translate(60)"/>
</clipPath>
<clipPath id="clip7_754_3040">
<rect width="18" height="18" fill="white" transform="translate(60)"/>
</clipPath>
</defs>
</svg>
