<svg width="50" height="50" viewBox="0 0 50 50" fill="none" xmlns="http://www.w3.org/2000/svg">
<circle cx="25" cy="25" r="25" fill="#356BB3"/>
<path fill-rule="evenodd" clip-rule="evenodd" d="M31.9184 14.0214C33.0676 14.0214 34 14.9429 34 16.0786V22.7214V22.7857C33.9783 24.1357 32.8724 25.2286 31.5064 25.25C32.8724 25.2714 33.9783 26.3643 34 27.7143V27.7786V31.9357C34 32.5357 33.7398 33.0929 33.3061 33.4786L28.0587 38V28.7C28.0587 27.5643 27.1263 26.6429 25.977 26.6429H22.9196V38L17.6939 33.4357C17.2385 33.05 17 32.4929 17 31.8929V16.0571C17 14.9214 17.9324 14 19.0816 14H31.9184V14.0214ZM28.0587 16.8714H22.9196V23.1929H25.977C27.1263 23.1929 28.0587 22.2714 28.0587 21.1357V16.8714Z" fill="white"/>
</svg>
