<svg width="48" height="48" viewBox="0 0 48 48" fill="none" xmlns="http://www.w3.org/2000/svg">
<circle cx="24" cy="24" r="24" fill="url(#paint0_linear_787_5340)"/>
<path d="M4.57227 12.5798C9.24882 18.8082 13.7584 17.6682 21.7085 17.6682C22.3181 17.6682 22.6939 18.3472 22.3682 18.8669C16.9985 28.3563 15.5371 24.7433 23.4622 32.774V40L14.5767 31.0807C13.7584 30.2592 13.6164 28.9766 14.2427 27.9958L17.1071 23.511C17.4161 23.0248 17.0737 22.3877 16.4975 22.3877C8.61414 22.9158 7.01911 19.1352 4.57227 12.5714V12.5798Z" fill="white"/>
<path d="M43.429 12.5798C38.7524 18.8082 34.2429 17.6682 26.2928 17.6682C25.6831 17.6682 25.3074 18.3472 25.633 18.8669C31.0027 28.3563 32.4642 24.7433 24.5391 32.774V40L33.4245 31.0807C34.2429 30.2592 34.3849 28.9766 33.7586 27.9958L30.8942 23.511C30.5852 23.0248 30.9276 22.3877 31.5038 22.3877C39.3871 22.9158 40.9822 19.1352 43.429 12.5714V12.5798Z" fill="white"/>
<defs>
<linearGradient id="paint0_linear_787_5340" x1="0" y1="24" x2="48" y2="24" gradientUnits="userSpaceOnUse">
<stop stop-color="#FF2600"/>
<stop offset="1" stop-color="#F97C0E"/>
</linearGradient>
</defs>
</svg>
