<svg width="36" height="36" viewBox="0 0 36 36" fill="none" xmlns="http://www.w3.org/2000/svg">
<path d="M35.9975 18.0006C35.9975 27.0918 29.2588 34.6076 20.5048 35.8272C19.6862 35.9407 18.8488 36 17.9987 36C17.0175 36 16.054 35.9218 15.1156 35.7705C6.54568 34.3906 0 26.9593 0 18.0006C0 8.05942 8.05913 0 18 0C27.9409 0 36 8.05942 36 18.0006H35.9975Z" fill="white"/>
<path d="M7.30171 7.93835L15.603 19.0374L7.25 28.0617H9.13047L16.4442 20.1612L22.353 28.0617H28.7511L19.9832 16.3383L27.7586 7.93835H25.8781L19.1432 15.2145L13.7011 7.93835H7.30296H7.30171ZM10.0663 9.32321H13.0049L25.984 26.6768H23.0454L10.0663 9.32321Z" fill="#1C1C1B"/>
</svg>
