<svg width="24" height="24" viewBox="0 0 24 24" fill="none" xmlns="http://www.w3.org/2000/svg">
<path d="M23.9983 12.0004C23.9983 18.0612 19.5059 23.0717 13.6698 23.8848C13.1242 23.9605 12.5659 24 11.9992 24C11.345 24 10.7026 23.9479 10.0771 23.847C4.36379 22.9271 0 17.9729 0 12.0004C0 5.37295 5.37276 0 12 0C18.6272 0 24 5.37295 24 12.0004H23.9983Z" fill="white"/>
<path d="M4.87041 5.29199L10.4046 12.6914L4.83594 18.7075H6.08958L10.9654 13.4405L14.9046 18.7075H19.17L13.3247 10.892L18.5083 5.29199H17.2547L12.7647 10.1428L9.13667 5.29199H4.87124H4.87041ZM6.71346 6.21523H8.67254L17.3253 17.7843H15.3662L6.71346 6.21523Z" fill="#1C1C1B"/>
</svg>
